<svg version="1.1" xmlns="http://www.w3.org/2000/svg" xmlns:xlink="http://www.w3.org/1999/xlink" viewBox="0 0 172 172"><g fill="none" fill-rule="nonzero" stroke="none" stroke-width="1" stroke-linecap="butt" stroke-linejoin="miter" stroke-miterlimit="10" stroke-dasharray="" stroke-dashoffset="0" font-family="none" font-weight="none" font-size="none" text-anchor="none" style="mix-blend-mode: normal"><path d="M0,172v-172h172v172z" fill="none"></path><g><path d="M131.95625,156.95l-29.83125,-12.09375c-2.01562,7.12188 -10.34687,11.15313 -16.39375,11.95938v0.13437c-0.94063,0 -2.55313,-0.13437 -2.6875,-0.13437c-5.77813,-1.075 -11.15313,-4.97188 -13.03438,-11.825l-29.83125,12.09375v0c29.69688,9.40625 61.94688,9.40625 91.77813,-0.13438z" fill="#1a626e"></path><path d="M102.125,137.0625v8.73438v0c-4.70312,16.125 -27.54687,16.125 -32.11562,0v0v-8.73437" fill="#cdeef5"></path><path d="M129.40312,80.35625c0,-35.475 -17.60312,-53.61563 -43.40312,-53.61563c-25.8,0 -43.40312,18.275 -43.40312,53.61563c-8.33125,0.67188 -6.45,19.61875 2.95625,18.54375c2.6875,7.65938 5.64375,13.975 8.73438,19.35c10.61563,18.14063 22.70938,23.51563 31.57812,23.51563c11.42188,0 28.35313,-8.86875 40.3125,-42.73125c9.675,0.94063 11.55625,-18.00625 3.225,-18.67812z" fill="#cdeef5"></path><path d="M129.94063,80.49062c-0.13438,0 -0.26875,0 -0.5375,0c0,-35.475 -17.60312,-53.61562 -43.40312,-53.61562c-18.8125,0 -33.325,9.675 -39.775,28.75625c-2.28438,6.58437 -3.49375,14.24375 -3.62813,22.97813c17.60312,-41.925 44.6125,14.24375 87.34375,1.88125z" fill="#41acbf"></path><path d="M117.04063,86.40313c-14.64688,0 -27.27812,-6.58438 -37.89375,-12.09375c-9.1375,-4.8375 -17.06563,-8.86875 -22.70937,-6.85313c-3.7625,1.34375 -7.12187,5.50938 -10.07812,12.63125c-0.80625,2.01563 -3.225,2.95625 -5.24063,2.15c-2.01562,-0.80625 -2.95625,-3.225 -2.15,-5.24062c3.89687,-9.40625 8.73438,-14.91563 14.78125,-17.2c9.00313,-3.225 18.40937,1.6125 29.15937,7.25625c13.16875,6.85313 28.08438,14.64688 45.82188,9.54063c2.15,-0.67187 4.43438,0.5375 4.97188,2.6875c0.67188,2.15 -0.5375,4.43438 -2.6875,4.97187c-4.8375,1.47813 -9.54062,2.01563 -13.975,2.15zM40.3125,161.92188c-1.6125,0 -3.09063,-0.94063 -3.7625,-2.55312c-0.80625,-2.01562 0.13438,-4.43438 2.15,-5.24063l29.69688,-12.09375c2.01563,-0.80625 4.43437,0.13438 5.24062,2.15c0.80625,2.01563 -0.13438,4.43437 -2.15,5.24062l-29.69687,12.09375c-0.5375,0.26875 -1.075,0.40313 -1.47812,0.40313zM131.82188,161.92188c-0.5375,0 -1.075,-0.13438 -1.47813,-0.26875l-29.69687,-12.09375c-2.01562,-0.80625 -3.09063,-3.225 -2.15,-5.24062c0.80625,-2.01562 3.225,-3.09062 5.24063,-2.15l29.69687,12.09375c2.01563,0.80625 3.09062,3.225 2.15,5.24063c-0.67187,1.47812 -2.28437,2.41875 -3.7625,2.41875z" fill="#454b54"></path><path d="M86,161.92188v0c-9.54063,0 -17.33437,-5.9125 -19.8875,-15.05c-0.67187,-2.15 0.67188,-4.43437 2.82188,-4.97187c2.15,-0.67187 4.43438,0.67188 4.97188,2.82187c2.01563,6.85313 7.525,9.27188 12.22812,9.27188c4.56875,0 10.2125,-2.41875 12.22812,-9.27188l7.79375,2.28438c-2.82187,9.00313 -10.61563,14.91563 -20.15625,14.91563z" fill="#454b54"></path><path d="M44.88125,100.91563c-2.6875,0 -5.24063,-1.34375 -6.9875,-3.7625c-2.82187,-3.89688 -3.49375,-10.2125 -1.47812,-14.37813c1.20937,-2.6875 3.35938,-4.16563 6.04688,-4.43437c1.075,-0.13438 2.01562,0.80625 2.15,1.88125c0.13437,1.075 -0.80625,2.01563 -1.88125,2.15c-0.40313,0 -1.74688,0.13437 -2.6875,2.15c-1.34375,2.82188 -0.80625,7.525 1.075,10.34687c1.075,1.6125 2.55313,2.28438 4.16562,2.01563c1.075,-0.13437 2.15,0.67188 2.28438,1.74688c0.13437,1.075 -0.67187,2.15 -1.74688,2.28437c-0.26875,0 -0.67187,0 -0.94062,0zM127.11875,100.91563c-0.26875,0 -0.67187,0 -0.94062,0c-1.075,-0.13437 -1.88125,-1.075 -1.74688,-2.28437c0.13438,-1.20938 1.075,-1.88125 2.28438,-1.74688c1.6125,0.26875 3.09063,-0.5375 4.16562,-2.01562c2.01563,-2.6875 2.41875,-7.39062 1.075,-10.34687c-0.94063,-2.01562 -2.28438,-2.01562 -2.6875,-2.15c-1.075,-0.13438 -1.88125,-1.075 -1.88125,-2.15c0.13437,-1.075 1.075,-1.88125 2.15,-1.88125c2.6875,0.13438 4.8375,1.74687 6.04688,4.43437c2.01563,4.16563 1.34375,10.48125 -1.47812,14.37812c-1.74687,2.41875 -4.16562,3.7625 -6.9875,3.7625z" fill="#623434"></path><path d="M129.40312,84.3875c-2.28437,0 -4.03125,-1.74688 -4.03125,-4.03125c0,-31.44375 -14.37813,-49.58438 -39.37188,-49.58438c-17.2,0 -29.42812,8.46562 -35.34062,24.45625c-0.80625,2.15 -3.09062,3.09062 -5.24063,2.41875c-2.15,-0.80625 -3.09062,-3.09062 -2.41875,-5.24062c7.25625,-19.08125 22.44062,-29.69687 43,-29.69687c29.69687,0 47.43437,21.5 47.43437,57.64688c0,2.28437 -1.88125,4.03125 -4.03125,4.03125zM86,145.6625c-7.25625,0 -21.5,-3.09062 -34.26562,-24.1875c-1.20938,-1.88125 -0.5375,-4.43438 1.34375,-5.50937c1.88125,-1.20938 4.43437,-0.5375 5.50937,1.34375c10.75,17.7375 21.76875,20.29062 27.4125,20.29062c6.71875,0 23.65,-3.89687 36.55,-40.04375c0.80625,-2.15 3.09063,-3.225 5.10625,-2.41875c2.15,0.80625 3.225,3.09062 2.41875,5.10625c-14.5125,40.98438 -35.60937,45.41875 -44.075,45.41875z" fill="#454b54"></path><g fill="#623434"><path d="M45.6875,102.25938c-1.075,0 -2.01562,-0.94062 -2.01562,-2.01562v-24.59062c0,-1.075 0.94063,-2.01562 2.01563,-2.01562c1.075,0 2.01563,0.94062 2.01563,2.01563v24.59062c0,1.20938 -0.94063,2.01563 -2.01562,2.01563zM126.3125,102.25938c-1.075,0 -2.01562,-0.94062 -2.01562,-2.01562v-24.59062c0,-1.075 0.94062,-2.01562 2.01563,-2.01562c1.075,0 2.01563,0.94062 2.01563,2.01563v24.59062c0,1.20938 -0.94062,2.01563 -2.01562,2.01563z"></path></g><g><path d="M132.89688,109.24688l-10.88437,-1.88125l7.39062,-42.86562l10.88438,1.88125c4.70313,0.80625 7.79375,5.375 6.9875,10.07813l-4.43438,25.66563c-0.80625,4.70313 -5.24062,7.92813 -9.94375,7.12188zM39.10313,109.24688l10.88438,-1.88125l-7.39063,-42.86562l-10.88437,1.88125c-4.70312,0.80625 -7.79375,5.375 -6.9875,10.07813l4.43437,25.66563c0.80625,4.70313 5.24062,7.92813 9.94375,7.12188z" fill="#1a626e"></path><path d="M134.375,113.4125c-0.67187,0 -1.47813,0 -2.15,-0.13437l-10.2125,-1.74688c-2.15,-0.40313 -3.62813,-2.41875 -3.35937,-4.56875l6.71875,-43c0.13437,-1.075 0.80625,-2.01562 1.6125,-2.6875c0.94062,-0.67187 2.01563,-0.94063 3.09062,-0.67187l10.88438,1.88125c6.85312,1.20937 11.55625,7.79375 10.34688,14.78125l-4.56875,25.66563c-0.94062,6.04688 -6.18125,10.48125 -12.3625,10.48125zM127.3875,104.14063l6.18125,1.075c0.26875,0 0.5375,0.13437 0.80625,0.13437c2.28438,0 4.16563,-1.6125 4.56875,-3.89688l4.56875,-25.66563c0.40313,-2.55312 -1.20937,-4.97188 -3.7625,-5.375l-6.85313,-1.20937zM37.625,113.4125v0c-6.18125,0 -11.42187,-4.43438 -12.49687,-10.48125l-4.56875,-25.66562c-1.20938,-6.85313 3.35937,-13.4375 10.2125,-14.78125l10.88438,-1.88125c1.075,-0.13438 2.15,0 2.95625,0.67188c0.94063,0.67188 1.47812,1.6125 1.6125,2.55312l7.525,42.73125c0.40312,2.15 -1.075,4.3 -3.225,4.70313l-10.88438,1.88125c-0.5375,0.13437 -1.20938,0.26875 -2.01563,0.26875zM39.2375,69.20313l-6.9875,1.20937c-2.55312,0.40313 -4.16563,2.82188 -3.7625,5.375l4.56875,25.66563c0.40313,2.28437 2.28437,3.89688 4.56875,3.89688v0c0.26875,0 0.5375,0 0.80625,-0.13437l6.9875,-1.20938z" fill="#454b54"></path><path d="M34.13125,68.2625h-0.13438c-2.28437,-0.13438 -3.89687,-2.01562 -3.89687,-4.16563c1.20938,-30.36875 25.66563,-54.01875 55.9,-54.01875c29.69687,0 54.15312,23.24688 55.76563,52.94375c0.13438,2.28438 -1.6125,4.16562 -3.7625,4.3c-2.15,0.13437 -4.16563,-1.6125 -4.3,-3.7625c-1.34375,-25.39687 -22.30625,-45.28437 -47.70312,-45.28437c-25.8,0 -46.7625,20.29063 -47.8375,46.225c0,2.01563 -1.88125,3.7625 -4.03125,3.7625z" fill="#454b54"></path></g></g></g></svg>