<svg version="1.1" xmlns="http://www.w3.org/2000/svg" xmlns:xlink="http://www.w3.org/1999/xlink" viewBox="0 0 172 172"><g fill="none" fill-rule="nonzero" stroke="none" stroke-width="1" stroke-linecap="butt" stroke-linejoin="miter" stroke-miterlimit="10" stroke-dasharray="" stroke-dashoffset="0" font-family="none" font-weight="none" font-size="none" text-anchor="none" style="mix-blend-mode: normal"><path d="M0,172v-172h172v172z" fill="none"></path><g><path d="M146.33438,157.4875v0c-3.09062,3.09062 -8.19687,3.09062 -11.42187,0l-17.06562,-17.06563c-3.09062,-3.09062 -3.09062,-8.19688 0,-11.42187v0c3.09063,-3.09063 8.19688,-3.09063 11.42188,0l17.06562,17.06563c3.09063,3.225 3.09063,8.33125 0,11.42188z" fill="#41bf99"></path><path d="M70.27813,34.53438c-25.97464,0 -47.03125,21.05661 -47.03125,47.03125c0,25.97464 21.05661,47.03125 47.03125,47.03125c25.97464,0 47.03125,-21.05661 47.03125,-47.03125c0,-25.97464 -21.05661,-47.03125 -47.03125,-47.03125z" fill="#ffffff"></path><path d="M70.27813,34.53438c-25.97464,0 -47.03125,21.05661 -47.03125,47.03125c0,25.97464 21.05661,47.03125 47.03125,47.03125c25.97464,0 47.03125,-21.05661 47.03125,-47.03125c0,-25.97464 -21.05661,-47.03125 -47.03125,-47.03125z" fill="#ffffff"></path><path d="M70.27813,132.62813c-13.70625,0 -26.47188,-5.375 -36.14687,-14.91563c-19.8875,-19.8875 -19.8875,-52.27187 0,-72.15937c9.675,-9.675 22.44062,-14.91563 36.14688,-14.91563c13.70625,0 26.47187,5.375 36.14687,14.91563c19.8875,19.75312 19.8875,52.1375 0,72.025c-9.675,9.675 -22.44062,15.05 -36.14687,15.05zM70.27813,38.56562c-11.42188,0 -22.30625,4.43438 -30.36875,12.63125c-16.79688,16.79688 -16.79688,44.075 0,60.87188c8.0625,8.0625 18.94687,12.63125 30.36875,12.63125c11.42188,0 22.30625,-4.43438 30.36875,-12.63125c16.79688,-16.93125 16.79688,-44.20938 0.13437,-61.00625c-8.19687,-8.0625 -18.94688,-12.49688 -30.50312,-12.49688zM140.69063,163.9375c-3.225,0 -6.31563,-1.20937 -8.6,-3.49375l-17.06562,-17.06562c-4.70312,-4.70312 -4.70312,-12.3625 0,-17.06563c2.28438,-2.28437 5.375,-3.49375 8.6,-3.49375c3.225,0 6.31563,1.20938 8.6,3.49375l17.06563,17.06563c2.28438,2.28437 3.49375,5.375 3.49375,8.6c0,3.225 -1.20938,6.31563 -3.49375,8.6c-2.41875,2.15 -5.375,3.35937 -8.6,3.35937zM123.49063,130.74687c-1.075,0 -2.15,0.40313 -2.82187,1.20938c-1.6125,1.6125 -1.6125,4.16562 0,5.64375l17.06563,17.06563c1.47812,1.47813 4.16562,1.47813 5.64375,0c0.80625,-0.80625 1.20938,-1.74687 1.20938,-2.82187c0,-1.075 -0.40312,-2.15 -1.20938,-2.82188l-16.93125,-17.06563c-0.80625,-0.80625 -1.88125,-1.20938 -2.95625,-1.20938z" fill="#454b54"></path><path d="M117.84688,133.03125c-1.075,0 -2.01562,-0.40312 -2.82187,-1.20937l-14.24375,-14.24375c-1.6125,-1.6125 -1.6125,-4.16562 0,-5.64375c1.6125,-1.6125 4.16562,-1.6125 5.64375,0l14.24375,14.24375c1.6125,1.6125 1.6125,4.16562 0,5.64375c-0.80625,0.80625 -1.74688,1.20937 -2.82188,1.20937z" fill="#454b54"></path><path d="M156.27812,85.59688h-21.5c-1.74687,0 -3.225,-1.075 -3.7625,-2.6875l-18.8125,-55.22812l-1.74688,5.77812c-0.67187,2.15 -2.82187,3.35938 -4.97187,2.6875c-2.15,-0.67187 -3.35937,-2.82187 -2.6875,-4.97187l5.375,-17.7375c0.5375,-1.6125 2.01563,-2.82188 3.7625,-2.82188c0,0 0,0 0.13437,0c1.74687,0 3.225,1.075 3.7625,2.6875l21.90312,64.5h18.67813c2.28438,0 4.03125,1.74687 4.03125,4.03125c0,2.28437 -1.88125,3.7625 -4.16563,3.7625zM68.93438,112.47188c-1.74688,0 -3.225,-1.075 -3.7625,-2.6875l-8.46562,-24.1875h-6.58438c-2.28438,0 -4.03125,-1.74687 -4.03125,-4.03125c0,-2.28437 1.74687,-4.03125 4.03125,-4.03125h9.40625c1.74687,0 3.225,1.075 3.7625,2.6875l5.64375,15.99063l5.64375,-15.99062c0.5375,-1.6125 2.15,-2.6875 3.7625,-2.6875h10.48125l5.24063,-17.46875c0.67188,-2.15 2.82187,-3.35937 4.97188,-2.6875c2.15,0.67188 3.35938,2.82188 2.6875,4.97188l-6.04687,20.29062c-0.5375,1.74688 -2.01562,2.82188 -3.89688,2.82188h-10.61562l-8.46563,24.1875c-0.5375,1.74687 -2.01563,2.82187 -3.7625,2.82187zM36.68438,85.59688c-1.075,0 -2.15,-0.40312 -2.82188,-1.20937c-0.80625,-0.80625 -1.20937,-1.74687 -1.20937,-2.82188c0,-1.075 0.40312,-2.15 1.20937,-2.82187c1.47813,-1.47813 4.16563,-1.47813 5.64375,0c0.80625,0.80625 1.20937,1.74687 1.20937,2.82187c0,1.075 -0.40313,2.15 -1.20937,2.82188c-0.67187,0.80625 -1.74688,1.20937 -2.82187,1.20937z" fill="#8fcbb7"></path></g></g></svg>